<?xml version="1.0" standalone="no"?>
<!DOCTYPE svg PUBLIC "-//W3C//DTD SVG 20010904//EN"
 "http://www.w3.org/TR/2001/REC-SVG-20010904/DTD/svg10.dtd">
<svg version="1.0" xmlns="http://www.w3.org/2000/svg"
 width="800.000000pt" height="400.000000pt" viewBox="0 0 800.000000 400.000000"
 preserveAspectRatio="xMidYMid meet">

<g transform="translate(0.000000,400.000000) scale(0.100000,-0.100000)"
fill="#000000" stroke="none">
<path d="M0 2000 l0 -2000 4000 0 4000 0 0 2000 0 2000 -4000 0 -4000 0 0
-2000z m911 325 c-122 -125 -151 -175 -151 -256 0 -75 39 -139 162 -265 55
-57 98 -108 96 -115 -5 -16 -145 107 -205 179 -67 83 -96 151 -91 216 7 85 41
140 165 266 89 89 116 111 123 100 7 -11 -18 -42 -99 -125z m479 -250 c0 -327
-2 -375 -15 -375 -13 0 -15 48 -15 375 0 327 2 375 15 375 13 0 15 -48 15
-375z m5527 275 c122 -121 163 -191 163 -280 0 -40 -7 -71 -26 -108 -42 -84
-249 -293 -274 -277 -7 4 36 56 103 124 128 132 162 188 162 266 -1 74 -43
142 -158 258 -85 86 -106 117 -78 117 4 0 53 -45 108 -100z m-6652 -205 c0
-28 -2 -30 -39 -30 -46 0 -68 23 -46 50 9 11 25 15 49 13 33 -3 36 -6 36 -33z
m7621 4 c34 27 44 18 15 -13 l-22 -24 21 -15 c12 -9 20 -21 18 -27 -2 -7 -14
-3 -31 11 l-29 22 -30 -23 c-38 -28 -52 -16 -15 16 l27 23 -25 17 c-14 9 -25
23 -25 31 0 10 10 6 35 -12 l34 -27 27 21z m-7721 -79 c16 -26 43 -29 69 -9
36 28 48 14 14 -16 l-26 -22 26 -21 c15 -11 24 -23 20 -27 -5 -5 -16 -1 -25 7
-32 27 -40 28 -67 7 -35 -28 -46 -16 -16 16 l24 25 -22 16 c-23 16 -29 34 -13
34 6 0 13 -4 16 -10z m7674 -65 c21 -2 31 2 31 12 0 8 5 11 10 8 6 -3 10 -13
10 -21 0 -10 -12 -14 -44 -14 -34 0 -46 -4 -49 -17 -3 -10 -5 0 -6 22 0 26 2
35 8 26 5 -7 23 -14 40 -16z"/>
<path d="M197 2159 c-24 -14 -5 -39 30 -39 27 0 43 28 22 41 -18 11 -30 11
-52 -2z"/>
</g>
</svg>
